<?xml version="1.0" encoding="UTF-8" standalone="no"?> <!-- Created with Vectornator for iOS (http://vectornator.io/) --><!DOCTYPE svg PUBLIC "-//W3C//DTD SVG 1.1//EN" "http://www.w3.org/Graphics/SVG/1.1/DTD/svg11.dtd">
<svg height="100%" style="fill-rule:evenodd;clip-rule:evenodd;stroke-linecap:round;stroke-linejoin:round;" xmlns:xlink="http://www.w3.org/1999/xlink" xmlns="http://www.w3.org/2000/svg" xml:space="preserve" width="100%" xmlns:vectornator="http://vectornator.io" version="1.1" viewBox="0 0 400 400">
<metadata>
<vectornator:setting key="OutlineMode" value="0"/>
<vectornator:setting key="RulersVisible" value="1"/>
<vectornator:setting key="DisplayWhiteBackground" value="0"/>
<vectornator:setting key="Units" value="Pixels"/>
<vectornator:setting key="SnapToEdges" value="1"/>
<vectornator:setting key="DynamicGuides" value="1"/>
<vectornator:setting key="CMYKEnabledKey" value="0"/>
<vectornator:setting key="IsolateActiveLayer" value="0"/>
<vectornator:setting key="SnapToGuides" value="1"/>
<vectornator:setting key="ShowGrid" value="0"/>
<vectornator:setting key="GridSpacing" value="36"/>
</metadata>
<defs/>
<g id="svgg" vectornator:layerName="svgg">
<g opacity="1">
<path d="M111.249+66.7796C111.951+67.4479+128.167+80.3908+147.285+95.5438L182.044+123.093L190.212+123.093C194.704+123.093+198.379+122.994+198.379+122.874C198.379+122.754+201.909+110.301+206.225+95.2002C210.539+80.1007+214.069+67.256+214.069+66.6558C214.069+65.7956+203.093+65.5658+162.021+65.5658C117.503+65.5658+110.158+65.7409+111.249+66.7796" opacity="1" fill="#303030"/>
<path d="M210.796+93.6751C206.359+109.136+202.732+122.079+202.734+122.439C202.736+122.799+229.411+123.093+262.011+123.093L321.283+123.093L306.896+94.3289L292.51+65.5658L255.686+65.5658L218.863+65.5658L210.796+93.6751" opacity="1" fill="#303030"/>
<path d="M297.018+66.2452C297.178+66.619+303.584+79.3822+311.254+94.6078L325.2+122.292L355.707+121.699C372.485+121.372+388.805+120.865+391.974+120.573L397.734+120.042L380.643+92.8249L363.551+65.6071L330.139+65.587C311.763+65.5747+296.858+65.8715+297.018+66.2452" opacity="1" fill="#303030"/>
<path d="M356.216+125.062L321.861+125.871L311.11+134.54L300.36+143.209L300.36+174.646C300.36+202.467+300.512+206.024+301.688+205.572C303.418+204.909+396.993+125.477+397.059+124.618C397.086+124.258+395.638+124.029+393.84+124.109C392.042+124.189+375.112+124.617+356.216+125.062" opacity="1" fill="#303030"/>
<path d="M249.213+183.498C223.72+203.727+202.838+220.67+202.81+221.149C202.769+221.841+246.166+249.143+248.964+250.185C249.366+250.334+260.211+241.492+273.065+230.535L296.437+210.613L296.666+178.62C296.792+161.024+296.595+146.647+296.229+146.673C295.865+146.697+274.707+163.269+249.213+183.498" opacity="1" fill="#303030"/>
<path d="M2.26582+194.402C2.26582+194.736+17.5092+210.248+36.1387+228.874L70.0127+262.739L91.1948+256.326C102.846+252.799+112.335+249.576+112.281+249.164C112.164+248.249+2.26582+193.547+2.26582+194.402" opacity="1" fill="#303030"/>
<path d="M173.32+243.899L148.698+263.543L148.698+299.761C148.698+335.402+148.724+335.961+150.383+334.784C155.287+331.307+245.358+254.138+245.375+253.399C245.395+252.561+200.906+224.836+198.917+224.445C198.382+224.34+186.864+233.095+173.32+243.899" opacity="1" fill="#303030"/>
<path d="M95.9643+258.861C83.9798+262.507+74.0681+265.555+73.9387+265.636C73.5706+265.865+143.456+335.296+144.383+335.622C144.898+335.802+145.211+322.399+145.211+300.307L145.211+264.703L132.565+258.397C117.527+250.9+122.341+250.838+95.9643+258.861" opacity="1" fill="#303030"/>
</g>
</g>
</svg>
